<svg xmlns="http://www.w3.org/2000/svg" viewBox="0 0 24 24" fill="white">
  <path d="M20.3 4.4A19.8 19.8 0 0 0 16 3l-.3.6a18 18 0 0 0-7.4 0L8 3
  a19.8 19.8 0 0 0-4.3 1.4C1.3 8.1.6 11.7.9 15.3
  a19.8 19.8 0 0 0 6.1 3.1l.7-.9a12.5 12.5 0 0 1-1.9-.9l.5-.4
  a14.5 14.5 0 0 0 11.3 0l.5.4c-.6.4-1.2.7-1.9.9l.7.9
  a19.8 19.8 0 0 0 6.1-3.1c.3-3.6-.4-7.2-2.7-10.9zM9.5 13.7
  c-.9 0-1.6-.8-1.6-1.8s.7-1.8 1.6-1.8 1.6.8 1.6 1.8-.7 1.8-1.6 1.8zm5
  0c-.9 0-1.6-.8-1.6-1.8s.7-1.8 1.6-1.8 1.6.8 1.6 1.8-.7 1.8-1.6 1.8z"></path>
</svg>
